<svg width="20" height="20" viewBox="0 0 20 20" fill="none" xmlns="http://www.w3.org/2000/svg">
<path d="M8.28709 2.50873L9.59675 2.51746V4.21129C9.75391 4.17637 9.96054 4.15891 10.2167 4.15891C10.4029 4.15891 10.6008 4.16473 10.8104 4.17637V2.5H12.12V4.39465C13.0339 4.65076 13.7906 5.10477 14.3901 5.75669C15.2749 6.68219 15.8016 8.07916 15.9704 9.94761L14.2417 9.95634C14.2417 8.96682 13.939 7.9773 13.3337 6.98778C12.9961 6.57451 12.5915 6.23981 12.12 5.9837V10.1746L10.8104 10.1659V5.63446C10.6008 5.61118 10.4029 5.59953 10.2167 5.59953C9.95472 5.59953 9.74809 5.61991 9.59675 5.66065V10.1834L8.28709 10.1746V6.10594C7.80979 6.35041 7.43435 6.65891 7.16078 7.03143C6.40408 7.96275 6.02574 9.16764 6.02574 10.6461C6.02574 12.305 6.44774 13.6205 7.29174 14.5925C8.14157 15.5646 9.26206 16.0506 10.6532 16.0506H14.8179V17.5H5.18755L5.17882 16.0506H7.02981C5.12061 14.7061 4.16602 12.9045 4.16602 10.6461C4.16602 8.74855 4.71316 7.20023 5.80746 6.00116C6.44192 5.29686 7.26846 4.79336 8.28709 4.49069V2.50873Z" fill="#ADADAD"/>
</svg>
